<?xml version="1.0" encoding="utf-8" standalone="no"?>
<!DOCTYPE svg PUBLIC "-//W3C//DTD SVG 1.1//EN"
  "http://www.w3.org/Graphics/SVG/1.1/DTD/svg11.dtd">
<!-- Created with matplotlib (https://matplotlib.org/) -->
<svg height="360pt" version="1.1" viewBox="0 0 1080 360" width="1080pt" xmlns="http://www.w3.org/2000/svg" xmlns:xlink="http://www.w3.org/1999/xlink">
 <defs>
  <style type="text/css">
*{stroke-linecap:butt;stroke-linejoin:round;white-space:pre;}
  </style>
 </defs>
 <g id="figure_1">
  <g id="patch_1">
   <path d="M 0 360 
L 1080 360 
L 1080 0 
L 0 0 
z
" style="fill:#ffffff;"/>
  </g>
  <g id="axes_1">
   <g id="patch_2">
    <path d="M 135 315 
L 515.454545 315 
L 515.454545 43.2 
L 135 43.2 
z
" style="fill:#ffffff;"/>
   </g>
   <g id="matplotlib.axis_1">
    <g id="xtick_1">
     <g id="line2d_1">
      <defs>
       <path d="M 0 0 
L 0 6 
" id="m78ff9de8f1" style="stroke:#262626;stroke-width:1.25;"/>
      </defs>
      <g>
       <use style="fill:#262626;stroke:#262626;stroke-width:1.25;" x="135" xlink:href="#m78ff9de8f1" y="315"/>
      </g>
     </g>
     <g id="text_1">
      <!-- −30 -->
      <defs>
       <path d="M 52.828125 31.203125 
L 5.5625 31.203125 
L 5.5625 39.40625 
L 52.828125 39.40625 
z
" id="ArialMT-8722"/>
       <path d="M 4.203125 18.890625 
L 12.984375 20.0625 
Q 14.5 12.59375 18.140625 9.296875 
Q 21.78125 6 27 6 
Q 33.203125 6 37.46875 10.296875 
Q 41.75 14.59375 41.75 20.953125 
Q 41.75 27 37.796875 30.921875 
Q 33.84375 34.859375 27.734375 34.859375 
Q 25.25 34.859375 21.53125 33.890625 
L 22.515625 41.609375 
Q 23.390625 41.5 23.921875 41.5 
Q 29.546875 41.5 34.03125 44.421875 
Q 38.53125 47.359375 38.53125 53.46875 
Q 38.53125 58.296875 35.25 61.46875 
Q 31.984375 64.65625 26.8125 64.65625 
Q 21.6875 64.65625 18.265625 61.421875 
Q 14.84375 58.203125 13.875 51.765625 
L 5.078125 53.328125 
Q 6.6875 62.15625 12.390625 67.015625 
Q 18.109375 71.875 26.609375 71.875 
Q 32.46875 71.875 37.390625 69.359375 
Q 42.328125 66.84375 44.9375 62.5 
Q 47.5625 58.15625 47.5625 53.265625 
Q 47.5625 48.640625 45.0625 44.828125 
Q 42.578125 41.015625 37.703125 38.765625 
Q 44.046875 37.3125 47.5625 32.6875 
Q 51.078125 28.078125 51.078125 21.140625 
Q 51.078125 11.765625 44.234375 5.25 
Q 37.40625 -1.265625 26.953125 -1.265625 
Q 17.53125 -1.265625 11.296875 4.34375 
Q 5.078125 9.96875 4.203125 18.890625 
z
" id="ArialMT-51"/>
       <path d="M 4.15625 35.296875 
Q 4.15625 48 6.765625 55.734375 
Q 9.375 63.484375 14.515625 67.671875 
Q 19.671875 71.875 27.484375 71.875 
Q 33.25 71.875 37.59375 69.546875 
Q 41.9375 67.234375 44.765625 62.859375 
Q 47.609375 58.5 49.21875 52.21875 
Q 50.828125 45.953125 50.828125 35.296875 
Q 50.828125 22.703125 48.234375 14.96875 
Q 45.65625 7.234375 40.5 3 
Q 35.359375 -1.21875 27.484375 -1.21875 
Q 17.140625 -1.21875 11.234375 6.203125 
Q 4.15625 15.140625 4.15625 35.296875 
z
M 13.1875 35.296875 
Q 13.1875 17.671875 17.3125 11.828125 
Q 21.4375 6 27.484375 6 
Q 33.546875 6 37.671875 11.859375 
Q 41.796875 17.71875 41.796875 35.296875 
Q 41.796875 52.984375 37.671875 58.78125 
Q 33.546875 64.59375 27.390625 64.59375 
Q 21.34375 64.59375 17.71875 59.46875 
Q 13.1875 52.9375 13.1875 35.296875 
z
" id="ArialMT-48"/>
      </defs>
      <g style="fill:#262626;" transform="translate(125.670625 332.373594)scale(0.11 -0.11)">
       <use xlink:href="#ArialMT-8722"/>
       <use x="58.398438" xlink:href="#ArialMT-51"/>
       <use x="114.013672" xlink:href="#ArialMT-48"/>
      </g>
     </g>
    </g>
    <g id="xtick_2">
     <g id="line2d_2">
      <g>
       <use style="fill:#262626;stroke:#262626;stroke-width:1.25;" x="198.409091" xlink:href="#m78ff9de8f1" y="315"/>
      </g>
     </g>
     <g id="text_2">
      <!-- −20 -->
      <defs>
       <path d="M 50.34375 8.453125 
L 50.34375 0 
L 3.03125 0 
Q 2.9375 3.171875 4.046875 6.109375 
Q 5.859375 10.9375 9.828125 15.625 
Q 13.8125 20.3125 21.34375 26.46875 
Q 33.015625 36.03125 37.109375 41.625 
Q 41.21875 47.21875 41.21875 52.203125 
Q 41.21875 57.421875 37.46875 61 
Q 33.734375 64.59375 27.734375 64.59375 
Q 21.390625 64.59375 17.578125 60.78125 
Q 13.765625 56.984375 13.71875 50.25 
L 4.6875 51.171875 
Q 5.609375 61.28125 11.65625 66.578125 
Q 17.71875 71.875 27.9375 71.875 
Q 38.234375 71.875 44.234375 66.15625 
Q 50.25 60.453125 50.25 52 
Q 50.25 47.703125 48.484375 43.546875 
Q 46.734375 39.40625 42.65625 34.8125 
Q 38.578125 30.21875 29.109375 22.21875 
Q 21.1875 15.578125 18.9375 13.203125 
Q 16.703125 10.84375 15.234375 8.453125 
z
" id="ArialMT-50"/>
      </defs>
      <g style="fill:#262626;" transform="translate(189.079716 332.373594)scale(0.11 -0.11)">
       <use xlink:href="#ArialMT-8722"/>
       <use x="58.398438" xlink:href="#ArialMT-50"/>
       <use x="114.013672" xlink:href="#ArialMT-48"/>
      </g>
     </g>
    </g>
    <g id="xtick_3">
     <g id="line2d_3">
      <g>
       <use style="fill:#262626;stroke:#262626;stroke-width:1.25;" x="261.818182" xlink:href="#m78ff9de8f1" y="315"/>
      </g>
     </g>
     <g id="text_3">
      <!-- −10 -->
      <defs>
       <path d="M 37.25 0 
L 28.46875 0 
L 28.46875 56 
Q 25.296875 52.984375 20.140625 49.953125 
Q 14.984375 46.921875 10.890625 45.40625 
L 10.890625 53.90625 
Q 18.265625 57.375 23.78125 62.296875 
Q 29.296875 67.234375 31.59375 71.875 
L 37.25 71.875 
z
" id="ArialMT-49"/>
      </defs>
      <g style="fill:#262626;" transform="translate(252.488807 332.373594)scale(0.11 -0.11)">
       <use xlink:href="#ArialMT-8722"/>
       <use x="58.398438" xlink:href="#ArialMT-49"/>
       <use x="114.013672" xlink:href="#ArialMT-48"/>
      </g>
     </g>
    </g>
    <g id="xtick_4">
     <g id="line2d_4">
      <g>
       <use style="fill:#262626;stroke:#262626;stroke-width:1.25;" x="325.227273" xlink:href="#m78ff9de8f1" y="315"/>
      </g>
     </g>
     <g id="text_4">
      <!-- 0 -->
      <g style="fill:#262626;" transform="translate(322.168757 332.373594)scale(0.11 -0.11)">
       <use xlink:href="#ArialMT-48"/>
      </g>
     </g>
    </g>
    <g id="xtick_5">
     <g id="line2d_5">
      <g>
       <use style="fill:#262626;stroke:#262626;stroke-width:1.25;" x="388.636364" xlink:href="#m78ff9de8f1" y="315"/>
      </g>
     </g>
     <g id="text_5">
      <!-- 10 -->
      <g style="fill:#262626;" transform="translate(382.519332 332.373594)scale(0.11 -0.11)">
       <use xlink:href="#ArialMT-49"/>
       <use x="55.615234" xlink:href="#ArialMT-48"/>
      </g>
     </g>
    </g>
    <g id="xtick_6">
     <g id="line2d_6">
      <g>
       <use style="fill:#262626;stroke:#262626;stroke-width:1.25;" x="452.045455" xlink:href="#m78ff9de8f1" y="315"/>
      </g>
     </g>
     <g id="text_6">
      <!-- 20 -->
      <g style="fill:#262626;" transform="translate(445.928423 332.373594)scale(0.11 -0.11)">
       <use xlink:href="#ArialMT-50"/>
       <use x="55.615234" xlink:href="#ArialMT-48"/>
      </g>
     </g>
    </g>
    <g id="xtick_7">
     <g id="line2d_7">
      <g>
       <use style="fill:#262626;stroke:#262626;stroke-width:1.25;" x="515.454545" xlink:href="#m78ff9de8f1" y="315"/>
      </g>
     </g>
     <g id="text_7">
      <!-- 30 -->
      <g style="fill:#262626;" transform="translate(509.337514 332.373594)scale(0.11 -0.11)">
       <use xlink:href="#ArialMT-51"/>
       <use x="55.615234" xlink:href="#ArialMT-48"/>
      </g>
     </g>
    </g>
    <g id="text_8">
     <!-- Signed contrast -->
     <defs>
      <path d="M 4.5 23 
L 13.421875 23.78125 
Q 14.0625 18.40625 16.375 14.96875 
Q 18.703125 11.53125 23.578125 9.40625 
Q 28.46875 7.28125 34.578125 7.28125 
Q 39.984375 7.28125 44.140625 8.890625 
Q 48.296875 10.5 50.3125 13.296875 
Q 52.34375 16.109375 52.34375 19.4375 
Q 52.34375 22.796875 50.390625 25.3125 
Q 48.4375 27.828125 43.953125 29.546875 
Q 41.0625 30.671875 31.203125 33.03125 
Q 21.34375 35.40625 17.390625 37.5 
Q 12.25 40.1875 9.734375 44.15625 
Q 7.234375 48.140625 7.234375 53.078125 
Q 7.234375 58.5 10.296875 63.203125 
Q 13.375 67.921875 19.28125 70.359375 
Q 25.203125 72.796875 32.421875 72.796875 
Q 40.375 72.796875 46.453125 70.234375 
Q 52.546875 67.671875 55.8125 62.6875 
Q 59.078125 57.71875 59.328125 51.421875 
L 50.25 50.734375 
Q 49.515625 57.515625 45.28125 60.984375 
Q 41.0625 64.453125 32.8125 64.453125 
Q 24.21875 64.453125 20.28125 61.296875 
Q 16.359375 58.15625 16.359375 53.71875 
Q 16.359375 49.859375 19.140625 47.359375 
Q 21.875 44.875 33.421875 42.265625 
Q 44.96875 39.65625 49.265625 37.703125 
Q 55.515625 34.8125 58.484375 30.390625 
Q 61.46875 25.984375 61.46875 20.21875 
Q 61.46875 14.5 58.203125 9.4375 
Q 54.9375 4.390625 48.796875 1.578125 
Q 42.671875 -1.21875 35.015625 -1.21875 
Q 25.296875 -1.21875 18.71875 1.609375 
Q 12.15625 4.4375 8.421875 10.125 
Q 4.6875 15.828125 4.5 23 
z
" id="ArialMT-83"/>
      <path d="M 6.640625 61.46875 
L 6.640625 71.578125 
L 15.4375 71.578125 
L 15.4375 61.46875 
z
M 6.640625 0 
L 6.640625 51.859375 
L 15.4375 51.859375 
L 15.4375 0 
z
" id="ArialMT-105"/>
      <path d="M 4.984375 -4.296875 
L 13.53125 -5.5625 
Q 14.0625 -9.515625 16.5 -11.328125 
Q 19.78125 -13.765625 25.4375 -13.765625 
Q 31.546875 -13.765625 34.859375 -11.328125 
Q 38.1875 -8.890625 39.359375 -4.5 
Q 40.046875 -1.8125 39.984375 6.78125 
Q 34.234375 0 25.640625 0 
Q 14.9375 0 9.078125 7.71875 
Q 3.21875 15.4375 3.21875 26.21875 
Q 3.21875 33.640625 5.90625 39.90625 
Q 8.59375 46.1875 13.6875 49.609375 
Q 18.796875 53.03125 25.6875 53.03125 
Q 34.859375 53.03125 40.828125 45.609375 
L 40.828125 51.859375 
L 48.921875 51.859375 
L 48.921875 7.03125 
Q 48.921875 -5.078125 46.453125 -10.125 
Q 44 -15.1875 38.640625 -18.109375 
Q 33.296875 -21.046875 25.484375 -21.046875 
Q 16.21875 -21.046875 10.5 -16.875 
Q 4.78125 -12.703125 4.984375 -4.296875 
z
M 12.25 26.859375 
Q 12.25 16.65625 16.296875 11.96875 
Q 20.359375 7.28125 26.46875 7.28125 
Q 32.515625 7.28125 36.609375 11.9375 
Q 40.71875 16.609375 40.71875 26.5625 
Q 40.71875 36.078125 36.5 40.90625 
Q 32.28125 45.75 26.3125 45.75 
Q 20.453125 45.75 16.34375 40.984375 
Q 12.25 36.234375 12.25 26.859375 
z
" id="ArialMT-103"/>
      <path d="M 6.59375 0 
L 6.59375 51.859375 
L 14.5 51.859375 
L 14.5 44.484375 
Q 20.21875 53.03125 31 53.03125 
Q 35.6875 53.03125 39.625 51.34375 
Q 43.5625 49.65625 45.515625 46.921875 
Q 47.46875 44.1875 48.25 40.4375 
Q 48.734375 37.984375 48.734375 31.890625 
L 48.734375 0 
L 39.9375 0 
L 39.9375 31.546875 
Q 39.9375 36.921875 38.90625 39.578125 
Q 37.890625 42.234375 35.28125 43.8125 
Q 32.671875 45.40625 29.15625 45.40625 
Q 23.53125 45.40625 19.453125 41.84375 
Q 15.375 38.28125 15.375 28.328125 
L 15.375 0 
z
" id="ArialMT-110"/>
      <path d="M 42.09375 16.703125 
L 51.171875 15.578125 
Q 49.03125 7.625 43.21875 3.21875 
Q 37.40625 -1.171875 28.375 -1.171875 
Q 17 -1.171875 10.328125 5.828125 
Q 3.65625 12.84375 3.65625 25.484375 
Q 3.65625 38.578125 10.390625 45.796875 
Q 17.140625 53.03125 27.875 53.03125 
Q 38.28125 53.03125 44.875 45.953125 
Q 51.46875 38.875 51.46875 26.03125 
Q 51.46875 25.25 51.421875 23.6875 
L 12.75 23.6875 
Q 13.234375 15.140625 17.578125 10.59375 
Q 21.921875 6.0625 28.421875 6.0625 
Q 33.25 6.0625 36.671875 8.59375 
Q 40.09375 11.140625 42.09375 16.703125 
z
M 13.234375 30.90625 
L 42.1875 30.90625 
Q 41.609375 37.453125 38.875 40.71875 
Q 34.671875 45.796875 27.984375 45.796875 
Q 21.921875 45.796875 17.796875 41.75 
Q 13.671875 37.703125 13.234375 30.90625 
z
" id="ArialMT-101"/>
      <path d="M 40.234375 0 
L 40.234375 6.546875 
Q 35.296875 -1.171875 25.734375 -1.171875 
Q 19.53125 -1.171875 14.328125 2.25 
Q 9.125 5.671875 6.265625 11.796875 
Q 3.421875 17.921875 3.421875 25.875 
Q 3.421875 33.640625 6 39.96875 
Q 8.59375 46.296875 13.765625 49.65625 
Q 18.953125 53.03125 25.34375 53.03125 
Q 30.03125 53.03125 33.6875 51.046875 
Q 37.359375 49.078125 39.65625 45.90625 
L 39.65625 71.578125 
L 48.390625 71.578125 
L 48.390625 0 
z
M 12.453125 25.875 
Q 12.453125 15.921875 16.640625 10.984375 
Q 20.84375 6.0625 26.5625 6.0625 
Q 32.328125 6.0625 36.34375 10.765625 
Q 40.375 15.484375 40.375 25.140625 
Q 40.375 35.796875 36.265625 40.765625 
Q 32.171875 45.75 26.171875 45.75 
Q 20.3125 45.75 16.375 40.96875 
Q 12.453125 36.1875 12.453125 25.875 
z
" id="ArialMT-100"/>
      <path id="ArialMT-32"/>
      <path d="M 40.4375 19 
L 49.078125 17.875 
Q 47.65625 8.9375 41.8125 3.875 
Q 35.984375 -1.171875 27.484375 -1.171875 
Q 16.84375 -1.171875 10.375 5.78125 
Q 3.90625 12.75 3.90625 25.734375 
Q 3.90625 34.125 6.6875 40.421875 
Q 9.46875 46.734375 15.15625 49.875 
Q 20.84375 53.03125 27.546875 53.03125 
Q 35.984375 53.03125 41.359375 48.75 
Q 46.734375 44.484375 48.25 36.625 
L 39.703125 35.296875 
Q 38.484375 40.53125 35.375 43.15625 
Q 32.28125 45.796875 27.875 45.796875 
Q 21.234375 45.796875 17.078125 41.03125 
Q 12.9375 36.28125 12.9375 25.984375 
Q 12.9375 15.53125 16.9375 10.796875 
Q 20.953125 6.0625 27.390625 6.0625 
Q 32.5625 6.0625 36.03125 9.234375 
Q 39.5 12.40625 40.4375 19 
z
" id="ArialMT-99"/>
      <path d="M 3.328125 25.921875 
Q 3.328125 40.328125 11.328125 47.265625 
Q 18.015625 53.03125 27.640625 53.03125 
Q 38.328125 53.03125 45.109375 46.015625 
Q 51.90625 39.015625 51.90625 26.65625 
Q 51.90625 16.65625 48.90625 10.90625 
Q 45.90625 5.171875 40.15625 2 
Q 34.421875 -1.171875 27.640625 -1.171875 
Q 16.75 -1.171875 10.03125 5.8125 
Q 3.328125 12.796875 3.328125 25.921875 
z
M 12.359375 25.921875 
Q 12.359375 15.96875 16.703125 11.015625 
Q 21.046875 6.0625 27.640625 6.0625 
Q 34.1875 6.0625 38.53125 11.03125 
Q 42.875 16.015625 42.875 26.21875 
Q 42.875 35.84375 38.5 40.796875 
Q 34.125 45.75 27.640625 45.75 
Q 21.046875 45.75 16.703125 40.8125 
Q 12.359375 35.890625 12.359375 25.921875 
z
" id="ArialMT-111"/>
      <path d="M 25.78125 7.859375 
L 27.046875 0.09375 
Q 23.34375 -0.6875 20.40625 -0.6875 
Q 15.625 -0.6875 12.984375 0.828125 
Q 10.359375 2.34375 9.28125 4.8125 
Q 8.203125 7.28125 8.203125 15.1875 
L 8.203125 45.015625 
L 1.765625 45.015625 
L 1.765625 51.859375 
L 8.203125 51.859375 
L 8.203125 64.703125 
L 16.9375 69.96875 
L 16.9375 51.859375 
L 25.78125 51.859375 
L 25.78125 45.015625 
L 16.9375 45.015625 
L 16.9375 14.703125 
Q 16.9375 10.9375 17.40625 9.859375 
Q 17.875 8.796875 18.921875 8.15625 
Q 19.96875 7.515625 21.921875 7.515625 
Q 23.390625 7.515625 25.78125 7.859375 
z
" id="ArialMT-116"/>
      <path d="M 6.5 0 
L 6.5 51.859375 
L 14.40625 51.859375 
L 14.40625 44 
Q 17.4375 49.515625 20 51.265625 
Q 22.5625 53.03125 25.640625 53.03125 
Q 30.078125 53.03125 34.671875 50.203125 
L 31.640625 42.046875 
Q 28.421875 43.953125 25.203125 43.953125 
Q 22.3125 43.953125 20.015625 42.21875 
Q 17.71875 40.484375 16.75 37.40625 
Q 15.28125 32.71875 15.28125 27.15625 
L 15.28125 0 
z
" id="ArialMT-114"/>
      <path d="M 40.4375 6.390625 
Q 35.546875 2.25 31.03125 0.53125 
Q 26.515625 -1.171875 21.34375 -1.171875 
Q 12.796875 -1.171875 8.203125 3 
Q 3.609375 7.171875 3.609375 13.671875 
Q 3.609375 17.484375 5.34375 20.625 
Q 7.078125 23.78125 9.890625 25.6875 
Q 12.703125 27.59375 16.21875 28.5625 
Q 18.796875 29.25 24.03125 29.890625 
Q 34.671875 31.15625 39.703125 32.90625 
Q 39.75 34.71875 39.75 35.203125 
Q 39.75 40.578125 37.25 42.78125 
Q 33.890625 45.75 27.25 45.75 
Q 21.046875 45.75 18.09375 43.578125 
Q 15.140625 41.40625 13.71875 35.890625 
L 5.125 37.0625 
Q 6.296875 42.578125 8.984375 45.96875 
Q 11.671875 49.359375 16.75 51.1875 
Q 21.828125 53.03125 28.515625 53.03125 
Q 35.15625 53.03125 39.296875 51.46875 
Q 43.453125 49.90625 45.40625 47.53125 
Q 47.359375 45.171875 48.140625 41.546875 
Q 48.578125 39.3125 48.578125 33.453125 
L 48.578125 21.734375 
Q 48.578125 9.46875 49.140625 6.21875 
Q 49.703125 2.984375 51.375 0 
L 42.1875 0 
Q 40.828125 2.734375 40.4375 6.390625 
z
M 39.703125 26.03125 
Q 34.90625 24.078125 25.34375 22.703125 
Q 19.921875 21.921875 17.671875 20.9375 
Q 15.4375 19.96875 14.203125 18.09375 
Q 12.984375 16.21875 12.984375 13.921875 
Q 12.984375 10.40625 15.640625 8.0625 
Q 18.3125 5.71875 23.4375 5.71875 
Q 28.515625 5.71875 32.46875 7.9375 
Q 36.421875 10.15625 38.28125 14.015625 
Q 39.703125 17 39.703125 22.796875 
z
" id="ArialMT-97"/>
      <path d="M 3.078125 15.484375 
L 11.765625 16.84375 
Q 12.5 11.625 15.84375 8.84375 
Q 19.1875 6.0625 25.203125 6.0625 
Q 31.25 6.0625 34.171875 8.515625 
Q 37.109375 10.984375 37.109375 14.3125 
Q 37.109375 17.28125 34.515625 19 
Q 32.71875 20.171875 25.53125 21.96875 
Q 15.875 24.421875 12.140625 26.203125 
Q 8.40625 27.984375 6.46875 31.125 
Q 4.546875 34.28125 4.546875 38.09375 
Q 4.546875 41.546875 6.125 44.5 
Q 7.71875 47.46875 10.453125 49.421875 
Q 12.5 50.921875 16.03125 51.96875 
Q 19.578125 53.03125 23.640625 53.03125 
Q 29.734375 53.03125 34.34375 51.265625 
Q 38.96875 49.515625 41.15625 46.5 
Q 43.359375 43.5 44.1875 38.484375 
L 35.59375 37.3125 
Q 35.015625 41.3125 32.203125 43.546875 
Q 29.390625 45.796875 24.265625 45.796875 
Q 18.21875 45.796875 15.625 43.796875 
Q 13.03125 41.796875 13.03125 39.109375 
Q 13.03125 37.40625 14.109375 36.03125 
Q 15.1875 34.625 17.484375 33.6875 
Q 18.796875 33.203125 25.25 31.453125 
Q 34.578125 28.953125 38.25 27.359375 
Q 41.9375 25.78125 44.03125 22.75 
Q 46.140625 19.734375 46.140625 15.234375 
Q 46.140625 10.84375 43.578125 6.953125 
Q 41.015625 3.078125 36.171875 0.953125 
Q 31.34375 -1.171875 25.25 -1.171875 
Q 15.140625 -1.171875 9.84375 3.03125 
Q 4.546875 7.234375 3.078125 15.484375 
z
" id="ArialMT-115"/>
     </defs>
     <g style="fill:#262626;" transform="translate(283.537585 347.295469)scale(0.12 -0.12)">
      <use xlink:href="#ArialMT-83"/>
      <use x="66.699219" xlink:href="#ArialMT-105"/>
      <use x="88.916016" xlink:href="#ArialMT-103"/>
      <use x="144.53125" xlink:href="#ArialMT-110"/>
      <use x="200.146484" xlink:href="#ArialMT-101"/>
      <use x="255.761719" xlink:href="#ArialMT-100"/>
      <use x="311.376953" xlink:href="#ArialMT-32"/>
      <use x="339.160156" xlink:href="#ArialMT-99"/>
      <use x="389.160156" xlink:href="#ArialMT-111"/>
      <use x="444.775391" xlink:href="#ArialMT-110"/>
      <use x="500.390625" xlink:href="#ArialMT-116"/>
      <use x="528.173828" xlink:href="#ArialMT-114"/>
      <use x="561.474609" xlink:href="#ArialMT-97"/>
      <use x="617.089844" xlink:href="#ArialMT-115"/>
      <use x="667.089844" xlink:href="#ArialMT-116"/>
     </g>
    </g>
   </g>
   <g id="matplotlib.axis_2">
    <g id="ytick_1">
     <g id="line2d_8">
      <defs>
       <path d="M 0 0 
L -6 0 
" id="m0fa1662a92" style="stroke:#262626;stroke-width:1.25;"/>
      </defs>
      <g>
       <use style="fill:#262626;stroke:#262626;stroke-width:1.25;" x="135" xlink:href="#m0fa1662a92" y="309.241668"/>
      </g>
     </g>
     <g id="text_9">
      <!-- 0.0 -->
      <defs>
       <path d="M 9.078125 0 
L 9.078125 10.015625 
L 19.09375 10.015625 
L 19.09375 0 
z
" id="ArialMT-46"/>
      </defs>
      <g style="fill:#262626;" transform="translate(110.21 313.178465)scale(0.11 -0.11)">
       <use xlink:href="#ArialMT-48"/>
       <use x="55.615234" xlink:href="#ArialMT-46"/>
       <use x="83.398438" xlink:href="#ArialMT-48"/>
      </g>
     </g>
    </g>
    <g id="ytick_2">
     <g id="line2d_9">
      <g>
       <use style="fill:#262626;stroke:#262626;stroke-width:1.25;" x="135" xlink:href="#m0fa1662a92" y="253.173853"/>
      </g>
     </g>
     <g id="text_10">
      <!-- 0.2 -->
      <g style="fill:#262626;" transform="translate(110.21 257.11065)scale(0.11 -0.11)">
       <use xlink:href="#ArialMT-48"/>
       <use x="55.615234" xlink:href="#ArialMT-46"/>
       <use x="83.398438" xlink:href="#ArialMT-50"/>
      </g>
     </g>
    </g>
    <g id="ytick_3">
     <g id="line2d_10">
      <g>
       <use style="fill:#262626;stroke:#262626;stroke-width:1.25;" x="135" xlink:href="#m0fa1662a92" y="197.106037"/>
      </g>
     </g>
     <g id="text_11">
      <!-- 0.4 -->
      <defs>
       <path d="M 32.328125 0 
L 32.328125 17.140625 
L 1.265625 17.140625 
L 1.265625 25.203125 
L 33.9375 71.578125 
L 41.109375 71.578125 
L 41.109375 25.203125 
L 50.78125 25.203125 
L 50.78125 17.140625 
L 41.109375 17.140625 
L 41.109375 0 
z
M 32.328125 25.203125 
L 32.328125 57.46875 
L 9.90625 25.203125 
z
" id="ArialMT-52"/>
      </defs>
      <g style="fill:#262626;" transform="translate(110.21 201.042834)scale(0.11 -0.11)">
       <use xlink:href="#ArialMT-48"/>
       <use x="55.615234" xlink:href="#ArialMT-46"/>
       <use x="83.398438" xlink:href="#ArialMT-52"/>
      </g>
     </g>
    </g>
    <g id="ytick_4">
     <g id="line2d_11">
      <g>
       <use style="fill:#262626;stroke:#262626;stroke-width:1.25;" x="135" xlink:href="#m0fa1662a92" y="141.038222"/>
      </g>
     </g>
     <g id="text_12">
      <!-- 0.6 -->
      <defs>
       <path d="M 49.75 54.046875 
L 41.015625 53.375 
Q 39.84375 58.546875 37.703125 60.890625 
Q 34.125 64.65625 28.90625 64.65625 
Q 24.703125 64.65625 21.53125 62.3125 
Q 17.390625 59.28125 14.984375 53.46875 
Q 12.59375 47.65625 12.5 36.921875 
Q 15.671875 41.75 20.265625 44.09375 
Q 24.859375 46.4375 29.890625 46.4375 
Q 38.671875 46.4375 44.84375 39.96875 
Q 51.03125 33.5 51.03125 23.25 
Q 51.03125 16.5 48.125 10.71875 
Q 45.21875 4.9375 40.140625 1.859375 
Q 35.0625 -1.21875 28.609375 -1.21875 
Q 17.625 -1.21875 10.6875 6.859375 
Q 3.765625 14.9375 3.765625 33.5 
Q 3.765625 54.25 11.421875 63.671875 
Q 18.109375 71.875 29.4375 71.875 
Q 37.890625 71.875 43.28125 67.140625 
Q 48.6875 62.40625 49.75 54.046875 
z
M 13.875 23.1875 
Q 13.875 18.65625 15.796875 14.5 
Q 17.71875 10.359375 21.1875 8.171875 
Q 24.65625 6 28.46875 6 
Q 34.03125 6 38.03125 10.484375 
Q 42.046875 14.984375 42.046875 22.703125 
Q 42.046875 30.125 38.078125 34.390625 
Q 34.125 38.671875 28.125 38.671875 
Q 22.171875 38.671875 18.015625 34.390625 
Q 13.875 30.125 13.875 23.1875 
z
" id="ArialMT-54"/>
      </defs>
      <g style="fill:#262626;" transform="translate(110.21 144.975019)scale(0.11 -0.11)">
       <use xlink:href="#ArialMT-48"/>
       <use x="55.615234" xlink:href="#ArialMT-46"/>
       <use x="83.398438" xlink:href="#ArialMT-54"/>
      </g>
     </g>
    </g>
    <g id="ytick_5">
     <g id="line2d_12">
      <g>
       <use style="fill:#262626;stroke:#262626;stroke-width:1.25;" x="135" xlink:href="#m0fa1662a92" y="84.970406"/>
      </g>
     </g>
     <g id="text_13">
      <!-- 0.8 -->
      <defs>
       <path d="M 17.671875 38.8125 
Q 12.203125 40.828125 9.5625 44.53125 
Q 6.9375 48.25 6.9375 53.421875 
Q 6.9375 61.234375 12.546875 66.546875 
Q 18.171875 71.875 27.484375 71.875 
Q 36.859375 71.875 42.578125 66.421875 
Q 48.296875 60.984375 48.296875 53.171875 
Q 48.296875 48.1875 45.671875 44.5 
Q 43.0625 40.828125 37.75 38.8125 
Q 44.34375 36.671875 47.78125 31.875 
Q 51.21875 27.09375 51.21875 20.453125 
Q 51.21875 11.28125 44.71875 5.03125 
Q 38.234375 -1.21875 27.640625 -1.21875 
Q 17.046875 -1.21875 10.546875 5.046875 
Q 4.046875 11.328125 4.046875 20.703125 
Q 4.046875 27.6875 7.59375 32.390625 
Q 11.140625 37.109375 17.671875 38.8125 
z
M 15.921875 53.71875 
Q 15.921875 48.640625 19.1875 45.40625 
Q 22.46875 42.1875 27.6875 42.1875 
Q 32.765625 42.1875 36.015625 45.375 
Q 39.265625 48.578125 39.265625 53.21875 
Q 39.265625 58.0625 35.90625 61.359375 
Q 32.5625 64.65625 27.59375 64.65625 
Q 22.5625 64.65625 19.234375 61.421875 
Q 15.921875 58.203125 15.921875 53.71875 
z
M 13.09375 20.65625 
Q 13.09375 16.890625 14.875 13.375 
Q 16.65625 9.859375 20.171875 7.921875 
Q 23.6875 6 27.734375 6 
Q 34.03125 6 38.125 10.046875 
Q 42.234375 14.109375 42.234375 20.359375 
Q 42.234375 26.703125 38.015625 30.859375 
Q 33.796875 35.015625 27.4375 35.015625 
Q 21.234375 35.015625 17.15625 30.90625 
Q 13.09375 26.8125 13.09375 20.65625 
z
" id="ArialMT-56"/>
      </defs>
      <g style="fill:#262626;" transform="translate(110.21 88.907203)scale(0.11 -0.11)">
       <use xlink:href="#ArialMT-48"/>
       <use x="55.615234" xlink:href="#ArialMT-46"/>
       <use x="83.398438" xlink:href="#ArialMT-56"/>
      </g>
     </g>
    </g>
    <g id="text_14">
     <!-- Fraction of CW choices -->
     <defs>
      <path d="M 8.203125 0 
L 8.203125 71.578125 
L 56.5 71.578125 
L 56.5 63.140625 
L 17.671875 63.140625 
L 17.671875 40.96875 
L 51.265625 40.96875 
L 51.265625 32.515625 
L 17.671875 32.515625 
L 17.671875 0 
z
" id="ArialMT-70"/>
      <path d="M 8.6875 0 
L 8.6875 45.015625 
L 0.921875 45.015625 
L 0.921875 51.859375 
L 8.6875 51.859375 
L 8.6875 57.375 
Q 8.6875 62.59375 9.625 65.140625 
Q 10.890625 68.5625 14.078125 70.671875 
Q 17.28125 72.796875 23.046875 72.796875 
Q 26.765625 72.796875 31.25 71.921875 
L 29.9375 64.265625 
Q 27.203125 64.75 24.75 64.75 
Q 20.75 64.75 19.09375 63.03125 
Q 17.4375 61.328125 17.4375 56.640625 
L 17.4375 51.859375 
L 27.546875 51.859375 
L 27.546875 45.015625 
L 17.4375 45.015625 
L 17.4375 0 
z
" id="ArialMT-102"/>
      <path d="M 58.796875 25.09375 
L 68.265625 22.703125 
Q 65.28125 11.03125 57.546875 4.90625 
Q 49.8125 -1.21875 38.625 -1.21875 
Q 27.046875 -1.21875 19.796875 3.484375 
Q 12.546875 8.203125 8.765625 17.140625 
Q 4.984375 26.078125 4.984375 36.328125 
Q 4.984375 47.515625 9.25 55.828125 
Q 13.53125 64.15625 21.40625 68.46875 
Q 29.296875 72.796875 38.765625 72.796875 
Q 49.515625 72.796875 56.828125 67.328125 
Q 64.15625 61.859375 67.046875 51.953125 
L 57.71875 49.75 
Q 55.21875 57.5625 50.484375 61.125 
Q 45.75 64.703125 38.578125 64.703125 
Q 30.328125 64.703125 24.78125 60.734375 
Q 19.234375 56.78125 16.984375 50.109375 
Q 14.75 43.453125 14.75 36.375 
Q 14.75 27.25 17.40625 20.4375 
Q 20.0625 13.625 25.671875 10.25 
Q 31.296875 6.890625 37.84375 6.890625 
Q 45.796875 6.890625 51.3125 11.46875 
Q 56.84375 16.0625 58.796875 25.09375 
z
" id="ArialMT-67"/>
      <path d="M 20.21875 0 
L 1.21875 71.578125 
L 10.9375 71.578125 
L 21.828125 24.65625 
Q 23.578125 17.28125 24.859375 10.015625 
Q 27.59375 21.484375 28.078125 23.25 
L 41.703125 71.578125 
L 53.125 71.578125 
L 63.375 35.359375 
Q 67.234375 21.875 68.953125 10.015625 
Q 70.3125 16.796875 72.515625 25.59375 
L 83.734375 71.578125 
L 93.265625 71.578125 
L 73.640625 0 
L 64.5 0 
L 49.421875 54.546875 
Q 47.515625 61.375 47.171875 62.9375 
Q 46.046875 58.015625 45.0625 54.546875 
L 29.890625 0 
z
" id="ArialMT-87"/>
      <path d="M 6.59375 0 
L 6.59375 71.578125 
L 15.375 71.578125 
L 15.375 45.90625 
Q 21.53125 53.03125 30.90625 53.03125 
Q 36.671875 53.03125 40.921875 50.75 
Q 45.171875 48.484375 47 44.484375 
Q 48.828125 40.484375 48.828125 32.859375 
L 48.828125 0 
L 40.046875 0 
L 40.046875 32.859375 
Q 40.046875 39.453125 37.1875 42.453125 
Q 34.328125 45.453125 29.109375 45.453125 
Q 25.203125 45.453125 21.75 43.421875 
Q 18.3125 41.40625 16.84375 37.9375 
Q 15.375 34.46875 15.375 28.375 
L 15.375 0 
z
" id="ArialMT-104"/>
     </defs>
     <g style="fill:#262626;" transform="translate(103.825 241.115625)rotate(-90)scale(0.12 -0.12)">
      <use xlink:href="#ArialMT-70"/>
      <use x="61.083984" xlink:href="#ArialMT-114"/>
      <use x="94.384766" xlink:href="#ArialMT-97"/>
      <use x="150" xlink:href="#ArialMT-99"/>
      <use x="200" xlink:href="#ArialMT-116"/>
      <use x="227.783203" xlink:href="#ArialMT-105"/>
      <use x="250" xlink:href="#ArialMT-111"/>
      <use x="305.615234" xlink:href="#ArialMT-110"/>
      <use x="361.230469" xlink:href="#ArialMT-32"/>
      <use x="389.013672" xlink:href="#ArialMT-111"/>
      <use x="444.628906" xlink:href="#ArialMT-102"/>
      <use x="472.412109" xlink:href="#ArialMT-32"/>
      <use x="500.195312" xlink:href="#ArialMT-67"/>
      <use x="572.412109" xlink:href="#ArialMT-87"/>
      <use x="666.796875" xlink:href="#ArialMT-32"/>
      <use x="694.580078" xlink:href="#ArialMT-99"/>
      <use x="744.580078" xlink:href="#ArialMT-104"/>
      <use x="800.195312" xlink:href="#ArialMT-111"/>
      <use x="855.810547" xlink:href="#ArialMT-105"/>
      <use x="878.027344" xlink:href="#ArialMT-99"/>
      <use x="928.027344" xlink:href="#ArialMT-101"/>
      <use x="983.642578" xlink:href="#ArialMT-115"/>
     </g>
    </g>
   </g>
   <g id="LineCollection_1">
    <path clip-path="url(#pd478c5de85)" d="M 166.704545 300.198472 
L 166.704545 294.633428 
" style="fill:none;stroke:#0000ff;stroke-linecap:round;stroke-width:1.5;"/>
    <path clip-path="url(#pd478c5de85)" d="M 245.965909 302.645455 
L 245.965909 297.368484 
" style="fill:none;stroke:#0000ff;stroke-linecap:round;stroke-width:1.5;"/>
    <path clip-path="url(#pd478c5de85)" d="M 285.596591 284.322639 
L 285.596591 276.016296 
" style="fill:none;stroke:#0000ff;stroke-linecap:round;stroke-width:1.5;"/>
    <path clip-path="url(#pd478c5de85)" d="M 325.227273 236.430891 
L 325.227273 227.637319 
" style="fill:none;stroke:#0000ff;stroke-linecap:round;stroke-width:1.5;"/>
    <path clip-path="url(#pd478c5de85)" d="M 364.857955 107.508833 
L 364.857955 94.987485 
" style="fill:none;stroke:#0000ff;stroke-linecap:round;stroke-width:1.5;"/>
    <path clip-path="url(#pd478c5de85)" d="M 404.488636 81.379857 
L 404.488636 71.022502 
" style="fill:none;stroke:#0000ff;stroke-linecap:round;stroke-width:1.5;"/>
    <path clip-path="url(#pd478c5de85)" d="M 483.75 68.049039 
L 483.75 59.209518 
" style="fill:none;stroke:#0000ff;stroke-linecap:round;stroke-width:1.5;"/>
   </g>
   <g id="LineCollection_2">
    <path clip-path="url(#pd478c5de85)" d="M 166.704545 302.566928 
L 166.704545 297.560873 
" style="fill:none;stroke:#008000;stroke-linecap:round;stroke-width:1.5;"/>
    <path clip-path="url(#pd478c5de85)" d="M 245.965909 286.778601 
L 245.965909 277.793374 
" style="fill:none;stroke:#008000;stroke-linecap:round;stroke-width:1.5;"/>
    <path clip-path="url(#pd478c5de85)" d="M 285.596591 274.642858 
L 285.596591 263.109921 
" style="fill:none;stroke:#008000;stroke-linecap:round;stroke-width:1.5;"/>
    <path clip-path="url(#pd478c5de85)" d="M 325.227273 219.707017 
L 325.227273 209.275796 
" style="fill:none;stroke:#008000;stroke-linecap:round;stroke-width:1.5;"/>
    <path clip-path="url(#pd478c5de85)" d="M 364.857955 126.935274 
L 364.857955 112.316365 
" style="fill:none;stroke:#008000;stroke-linecap:round;stroke-width:1.5;"/>
    <path clip-path="url(#pd478c5de85)" d="M 404.488636 83.018679 
L 404.488636 71.485742 
" style="fill:none;stroke:#008000;stroke-linecap:round;stroke-width:1.5;"/>
    <path clip-path="url(#pd478c5de85)" d="M 483.75 65.42564 
L 483.75 55.554545 
" style="fill:none;stroke:#008000;stroke-linecap:round;stroke-width:1.5;"/>
   </g>
   <g id="line2d_13">
    <path clip-path="url(#pd478c5de85)" d="M 166.704545 296.640834 
L 173.045455 296.640833 
L 179.386364 296.64083 
L 185.727273 296.64082 
L 192.068182 296.640789 
L 198.409091 296.640695 
L 204.75 296.640425 
L 211.090909 296.639688 
L 217.431818 296.637765 
L 223.772727 296.632981 
L 230.113636 296.621631 
L 236.454545 296.595948 
L 242.795455 296.54051 
L 249.136364 296.426368 
L 255.477273 296.202209 
L 261.818182 295.782315 
L 268.159091 295.032072 
L 274.5 293.753457 
L 280.840909 291.674935 
L 287.181818 288.452039 
L 293.522727 283.685371 
L 299.863636 276.96086 
L 306.204545 267.912209 
L 312.545455 256.298143 
L 318.886364 242.079364 
L 325.227273 225.475167 
L 331.568182 206.980306 
L 337.909091 187.330333 
L 344.25 167.416697 
L 350.590909 148.167312 
L 356.931818 130.418845 
L 363.272727 114.809578 
L 369.613636 101.715294 
L 375.954545 91.237771 
L 382.295455 83.241033 
L 388.636364 77.419404 
L 394.977273 73.376873 
L 401.318182 70.699312 
L 407.659091 69.007695 
L 414 67.988301 
L 420.340909 67.402354 
L 426.681818 67.081098 
L 433.022727 66.913094 
L 439.363636 66.829291 
L 445.704545 66.789417 
L 452.045455 66.771321 
L 458.386364 66.763488 
L 464.727273 66.760253 
L 471.068182 66.75898 
L 477.409091 66.758501 
" style="fill:none;stroke:#0000ff;stroke-linecap:round;stroke-width:2;"/>
   </g>
   <g id="line2d_14">
    <path clip-path="url(#pd478c5de85)" d="M 166.704545 297.41595 
L 245.965909 300.006969 
L 285.596591 280.169468 
L 325.227273 231.858234 
L 364.857955 101.248159 
L 404.488636 76.546424 
L 483.75 63.629278 
" style="fill:none;"/>
    <defs>
     <path d="M 0 1.5 
C 0.397805 1.5 0.77937 1.341951 1.06066 1.06066 
C 1.341951 0.77937 1.5 0.397805 1.5 0 
C 1.5 -0.397805 1.341951 -0.77937 1.06066 -1.06066 
C 0.77937 -1.341951 0.397805 -1.5 0 -1.5 
C -0.397805 -1.5 -0.77937 -1.341951 -1.06066 -1.06066 
C -1.341951 -0.77937 -1.5 -0.397805 -1.5 0 
C -1.5 0.397805 -1.341951 0.77937 -1.06066 1.06066 
C -0.77937 1.341951 -0.397805 1.5 0 1.5 
z
" id="mca34d1d741" style="stroke:#ffffff;stroke-width:0.5;"/>
    </defs>
    <g clip-path="url(#pd478c5de85)">
     <use style="fill:#0000ff;stroke:#ffffff;stroke-width:0.5;" x="166.704545" xlink:href="#mca34d1d741" y="297.41595"/>
     <use style="fill:#0000ff;stroke:#ffffff;stroke-width:0.5;" x="245.965909" xlink:href="#mca34d1d741" y="300.006969"/>
     <use style="fill:#0000ff;stroke:#ffffff;stroke-width:0.5;" x="285.596591" xlink:href="#mca34d1d741" y="280.169468"/>
     <use style="fill:#0000ff;stroke:#ffffff;stroke-width:0.5;" x="325.227273" xlink:href="#mca34d1d741" y="231.858234"/>
     <use style="fill:#0000ff;stroke:#ffffff;stroke-width:0.5;" x="364.857955" xlink:href="#mca34d1d741" y="101.248159"/>
     <use style="fill:#0000ff;stroke:#ffffff;stroke-width:0.5;" x="404.488636" xlink:href="#mca34d1d741" y="76.546424"/>
     <use style="fill:#0000ff;stroke:#ffffff;stroke-width:0.5;" x="483.75" xlink:href="#mca34d1d741" y="63.629278"/>
    </g>
   </g>
   <g id="line2d_15">
    <path clip-path="url(#pd478c5de85)" d="M 166.704545 294.624664 
L 173.045455 294.616745 
L 179.386364 294.603129 
L 185.727273 294.580193 
L 192.068182 294.542342 
L 198.409091 294.481144 
L 204.75 294.384208 
L 211.090909 294.233779 
L 217.431818 294.005076 
L 223.772727 293.664427 
L 230.113636 293.167334 
L 236.454545 292.456675 
L 242.795455 291.461312 
L 249.136364 290.095484 
L 255.477273 288.259346 
L 261.818182 285.841048 
L 268.159091 282.720657 
L 274.5 278.776054 
L 280.840909 273.890741 
L 287.181818 267.963175 
L 293.522727 260.916968 
L 299.863636 252.711009 
L 306.204545 243.34837 
L 312.545455 232.88282 
L 318.886364 221.421863 
L 325.227273 209.125557 
L 331.568182 196.200771 
L 337.909091 182.891107 
L 344.25 169.463281 
L 350.590909 156.19119 
L 356.931818 143.339273 
L 363.272727 131.146809 
L 369.613636 119.81472 
L 375.954545 109.496057 
L 382.295455 100.290885 
L 388.636364 92.245714 
L 394.977273 85.357073 
L 401.318182 79.578416 
L 407.659091 74.829275 
L 414 71.005448 
L 420.340909 67.989135 
L 426.681818 65.658098 
L 433.022727 63.893209 
L 439.363636 62.584088 
L 445.704545 61.632743 
L 452.045455 60.955429 
L 458.386364 60.482999 
L 464.727273 60.160164 
L 471.068182 59.944033 
L 477.409091 59.802275 
" style="fill:none;stroke:#008000;stroke-linecap:round;stroke-width:2;"/>
   </g>
   <g id="line2d_16">
    <path clip-path="url(#pd478c5de85)" d="M 166.704545 300.063901 
L 245.965909 282.285988 
L 285.596591 269.319964 
L 325.227273 214.491406 
L 364.857955 120.055788 
L 404.488636 77.695785 
L 483.75 60.490093 
" style="fill:none;"/>
    <defs>
     <path d="M 0 1.5 
C 0.397805 1.5 0.77937 1.341951 1.06066 1.06066 
C 1.341951 0.77937 1.5 0.397805 1.5 0 
C 1.5 -0.397805 1.341951 -0.77937 1.06066 -1.06066 
C 0.77937 -1.341951 0.397805 -1.5 0 -1.5 
C -0.397805 -1.5 -0.77937 -1.341951 -1.06066 -1.06066 
C -1.341951 -0.77937 -1.5 -0.397805 -1.5 0 
C -1.5 0.397805 -1.341951 0.77937 -1.06066 1.06066 
C -0.77937 1.341951 -0.397805 1.5 0 1.5 
z
" id="m6a6b552137" style="stroke:#ffffff;stroke-width:0.5;"/>
    </defs>
    <g clip-path="url(#pd478c5de85)">
     <use style="fill:#008000;stroke:#ffffff;stroke-width:0.5;" x="166.704545" xlink:href="#m6a6b552137" y="300.063901"/>
     <use style="fill:#008000;stroke:#ffffff;stroke-width:0.5;" x="245.965909" xlink:href="#m6a6b552137" y="282.285988"/>
     <use style="fill:#008000;stroke:#ffffff;stroke-width:0.5;" x="285.596591" xlink:href="#m6a6b552137" y="269.319964"/>
     <use style="fill:#008000;stroke:#ffffff;stroke-width:0.5;" x="325.227273" xlink:href="#m6a6b552137" y="214.491406"/>
     <use style="fill:#008000;stroke:#ffffff;stroke-width:0.5;" x="364.857955" xlink:href="#m6a6b552137" y="120.055788"/>
     <use style="fill:#008000;stroke:#ffffff;stroke-width:0.5;" x="404.488636" xlink:href="#m6a6b552137" y="77.695785"/>
     <use style="fill:#008000;stroke:#ffffff;stroke-width:0.5;" x="483.75" xlink:href="#m6a6b552137" y="60.490093"/>
    </g>
   </g>
   <g id="line2d_17"/>
   <g id="line2d_18"/>
   <g id="patch_3">
    <path d="M 135 315 
L 135 43.2 
" style="fill:none;stroke:#262626;stroke-linecap:square;stroke-linejoin:miter;stroke-width:1.25;"/>
   </g>
   <g id="patch_4">
    <path d="M 515.454545 315 
L 515.454545 43.2 
" style="fill:none;stroke:#262626;stroke-linecap:square;stroke-linejoin:miter;stroke-width:1.25;"/>
   </g>
   <g id="patch_5">
    <path d="M 135 315 
L 515.454545 315 
" style="fill:none;stroke:#262626;stroke-linecap:square;stroke-linejoin:miter;stroke-width:1.25;"/>
   </g>
   <g id="patch_6">
    <path d="M 135 43.2 
L 515.454545 43.2 
" style="fill:none;stroke:#262626;stroke-linecap:square;stroke-linejoin:miter;stroke-width:1.25;"/>
   </g>
   <g id="text_15">
    <!-- chr2 B -->
    <defs>
     <path d="M 7.328125 0 
L 7.328125 71.578125 
L 34.1875 71.578125 
Q 42.390625 71.578125 47.34375 69.40625 
Q 52.296875 67.234375 55.09375 62.71875 
Q 57.90625 58.203125 57.90625 53.265625 
Q 57.90625 48.6875 55.421875 44.625 
Q 52.9375 40.578125 47.90625 38.09375 
Q 54.390625 36.1875 57.875 31.59375 
Q 61.375 27 61.375 20.75 
Q 61.375 15.71875 59.25 11.390625 
Q 57.125 7.078125 54 4.734375 
Q 50.875 2.390625 46.15625 1.1875 
Q 41.453125 0 34.625 0 
z
M 16.796875 41.5 
L 32.28125 41.5 
Q 38.578125 41.5 41.3125 42.328125 
Q 44.921875 43.40625 46.75 45.890625 
Q 48.578125 48.390625 48.578125 52.15625 
Q 48.578125 55.71875 46.875 58.421875 
Q 45.171875 61.140625 41.984375 62.140625 
Q 38.8125 63.140625 31.109375 63.140625 
L 16.796875 63.140625 
z
M 16.796875 8.453125 
L 34.625 8.453125 
Q 39.203125 8.453125 41.0625 8.796875 
Q 44.34375 9.375 46.53125 10.734375 
Q 48.734375 12.109375 50.140625 14.71875 
Q 51.5625 17.328125 51.5625 20.75 
Q 51.5625 24.75 49.515625 27.703125 
Q 47.46875 30.671875 43.828125 31.859375 
Q 40.1875 33.0625 33.34375 33.0625 
L 16.796875 33.0625 
z
" id="ArialMT-66"/>
    </defs>
    <g style="fill:#262626;" transform="translate(307.887273 37.2)scale(0.12 -0.12)">
     <use xlink:href="#ArialMT-99"/>
     <use x="50" xlink:href="#ArialMT-104"/>
     <use x="105.615234" xlink:href="#ArialMT-114"/>
     <use x="138.916016" xlink:href="#ArialMT-50"/>
     <use x="194.53125" xlink:href="#ArialMT-32"/>
     <use x="222.314453" xlink:href="#ArialMT-66"/>
    </g>
   </g>
   <g id="legend_1">
    <g id="patch_7">
     <path d="M 370.761577 309.5 
L 507.754545 309.5 
Q 509.954545 309.5 509.954545 307.3 
L 509.954545 277.017344 
Q 509.954545 274.817344 507.754545 274.817344 
L 370.761577 274.817344 
Q 368.561577 274.817344 368.561577 277.017344 
L 368.561577 307.3 
Q 368.561577 309.5 370.761577 309.5 
z
" style="fill:#ffffff;opacity:0.8;stroke:#cccccc;stroke-linejoin:miter;"/>
    </g>
    <g id="patch_8">
     <path d="M 372.961577 287.225 
L 394.961577 287.225 
L 394.961577 279.525 
L 372.961577 279.525 
z
" style="fill:#008000;stroke:#008000;stroke-linejoin:miter;"/>
    </g>
    <g id="text_16">
     <!-- Stim right = Laser on -->
     <defs>
      <path d="M 6.59375 0 
L 6.59375 51.859375 
L 14.453125 51.859375 
L 14.453125 44.578125 
Q 16.890625 48.390625 20.9375 50.703125 
Q 25 53.03125 30.171875 53.03125 
Q 35.9375 53.03125 39.625 50.640625 
Q 43.3125 48.25 44.828125 43.953125 
Q 50.984375 53.03125 60.84375 53.03125 
Q 68.5625 53.03125 72.703125 48.75 
Q 76.859375 44.484375 76.859375 35.59375 
L 76.859375 0 
L 68.109375 0 
L 68.109375 32.671875 
Q 68.109375 37.9375 67.25 40.25 
Q 66.40625 42.578125 64.15625 43.984375 
Q 61.921875 45.40625 58.890625 45.40625 
Q 53.421875 45.40625 49.796875 41.765625 
Q 46.1875 38.140625 46.1875 30.125 
L 46.1875 0 
L 37.40625 0 
L 37.40625 33.6875 
Q 37.40625 39.546875 35.25 42.46875 
Q 33.109375 45.40625 28.21875 45.40625 
Q 24.515625 45.40625 21.359375 43.453125 
Q 18.21875 41.5 16.796875 37.734375 
Q 15.375 33.984375 15.375 26.90625 
L 15.375 0 
z
" id="ArialMT-109"/>
      <path d="M 52.828125 42.09375 
L 5.5625 42.09375 
L 5.5625 50.296875 
L 52.828125 50.296875 
z
M 52.828125 20.359375 
L 5.5625 20.359375 
L 5.5625 28.5625 
L 52.828125 28.5625 
z
" id="ArialMT-61"/>
      <path d="M 7.328125 0 
L 7.328125 71.578125 
L 16.796875 71.578125 
L 16.796875 8.453125 
L 52.046875 8.453125 
L 52.046875 0 
z
" id="ArialMT-76"/>
     </defs>
     <g style="fill:#262626;" transform="translate(403.761577 287.225)scale(0.11 -0.11)">
      <use xlink:href="#ArialMT-83"/>
      <use x="66.699219" xlink:href="#ArialMT-116"/>
      <use x="94.482422" xlink:href="#ArialMT-105"/>
      <use x="116.699219" xlink:href="#ArialMT-109"/>
      <use x="200" xlink:href="#ArialMT-32"/>
      <use x="227.783203" xlink:href="#ArialMT-114"/>
      <use x="261.083984" xlink:href="#ArialMT-105"/>
      <use x="283.300781" xlink:href="#ArialMT-103"/>
      <use x="338.916016" xlink:href="#ArialMT-104"/>
      <use x="394.53125" xlink:href="#ArialMT-116"/>
      <use x="422.314453" xlink:href="#ArialMT-32"/>
      <use x="450.097656" xlink:href="#ArialMT-61"/>
      <use x="508.496094" xlink:href="#ArialMT-32"/>
      <use x="536.279297" xlink:href="#ArialMT-76"/>
      <use x="591.894531" xlink:href="#ArialMT-97"/>
      <use x="647.509766" xlink:href="#ArialMT-115"/>
      <use x="697.509766" xlink:href="#ArialMT-101"/>
      <use x="753.125" xlink:href="#ArialMT-114"/>
      <use x="786.425781" xlink:href="#ArialMT-32"/>
      <use x="814.208984" xlink:href="#ArialMT-111"/>
      <use x="869.824219" xlink:href="#ArialMT-110"/>
     </g>
    </g>
    <g id="patch_9">
     <path d="M 372.961577 302.91375 
L 394.961577 302.91375 
L 394.961577 295.21375 
L 372.961577 295.21375 
z
" style="fill:#0000ff;stroke:#0000ff;stroke-linejoin:miter;"/>
    </g>
    <g id="text_17">
     <!-- Stim left = Laser on -->
     <defs>
      <path d="M 6.390625 0 
L 6.390625 71.578125 
L 15.1875 71.578125 
L 15.1875 0 
z
" id="ArialMT-108"/>
     </defs>
     <g style="fill:#262626;" transform="translate(403.761577 302.91375)scale(0.11 -0.11)">
      <use xlink:href="#ArialMT-83"/>
      <use x="66.699219" xlink:href="#ArialMT-116"/>
      <use x="94.482422" xlink:href="#ArialMT-105"/>
      <use x="116.699219" xlink:href="#ArialMT-109"/>
      <use x="200" xlink:href="#ArialMT-32"/>
      <use x="227.783203" xlink:href="#ArialMT-108"/>
      <use x="250" xlink:href="#ArialMT-101"/>
      <use x="305.615234" xlink:href="#ArialMT-102"/>
      <use x="333.398438" xlink:href="#ArialMT-116"/>
      <use x="361.181641" xlink:href="#ArialMT-32"/>
      <use x="388.964844" xlink:href="#ArialMT-61"/>
      <use x="447.363281" xlink:href="#ArialMT-32"/>
      <use x="475.146484" xlink:href="#ArialMT-76"/>
      <use x="530.761719" xlink:href="#ArialMT-97"/>
      <use x="586.376953" xlink:href="#ArialMT-115"/>
      <use x="636.376953" xlink:href="#ArialMT-101"/>
      <use x="691.992188" xlink:href="#ArialMT-114"/>
      <use x="725.292969" xlink:href="#ArialMT-32"/>
      <use x="753.076172" xlink:href="#ArialMT-111"/>
      <use x="808.691406" xlink:href="#ArialMT-110"/>
     </g>
    </g>
   </g>
  </g>
  <g id="axes_2">
   <g id="patch_10">
    <path d="M 591.545455 315 
L 972 315 
L 972 43.2 
L 591.545455 43.2 
z
" style="fill:#ffffff;"/>
   </g>
   <g id="matplotlib.axis_3">
    <g id="xtick_8">
     <g id="line2d_19">
      <g>
       <use style="fill:#262626;stroke:#262626;stroke-width:1.25;" x="591.545455" xlink:href="#m78ff9de8f1" y="315"/>
      </g>
     </g>
     <g id="text_18">
      <!-- −30 -->
      <g style="fill:#262626;" transform="translate(582.21608 332.373594)scale(0.11 -0.11)">
       <use xlink:href="#ArialMT-8722"/>
       <use x="58.398438" xlink:href="#ArialMT-51"/>
       <use x="114.013672" xlink:href="#ArialMT-48"/>
      </g>
     </g>
    </g>
    <g id="xtick_9">
     <g id="line2d_20">
      <g>
       <use style="fill:#262626;stroke:#262626;stroke-width:1.25;" x="654.954545" xlink:href="#m78ff9de8f1" y="315"/>
      </g>
     </g>
     <g id="text_19">
      <!-- −20 -->
      <g style="fill:#262626;" transform="translate(645.62517 332.373594)scale(0.11 -0.11)">
       <use xlink:href="#ArialMT-8722"/>
       <use x="58.398438" xlink:href="#ArialMT-50"/>
       <use x="114.013672" xlink:href="#ArialMT-48"/>
      </g>
     </g>
    </g>
    <g id="xtick_10">
     <g id="line2d_21">
      <g>
       <use style="fill:#262626;stroke:#262626;stroke-width:1.25;" x="718.363636" xlink:href="#m78ff9de8f1" y="315"/>
      </g>
     </g>
     <g id="text_20">
      <!-- −10 -->
      <g style="fill:#262626;" transform="translate(709.034261 332.373594)scale(0.11 -0.11)">
       <use xlink:href="#ArialMT-8722"/>
       <use x="58.398438" xlink:href="#ArialMT-49"/>
       <use x="114.013672" xlink:href="#ArialMT-48"/>
      </g>
     </g>
    </g>
    <g id="xtick_11">
     <g id="line2d_22">
      <g>
       <use style="fill:#262626;stroke:#262626;stroke-width:1.25;" x="781.772727" xlink:href="#m78ff9de8f1" y="315"/>
      </g>
     </g>
     <g id="text_21">
      <!-- 0 -->
      <g style="fill:#262626;" transform="translate(778.714212 332.373594)scale(0.11 -0.11)">
       <use xlink:href="#ArialMT-48"/>
      </g>
     </g>
    </g>
    <g id="xtick_12">
     <g id="line2d_23">
      <g>
       <use style="fill:#262626;stroke:#262626;stroke-width:1.25;" x="845.181818" xlink:href="#m78ff9de8f1" y="315"/>
      </g>
     </g>
     <g id="text_22">
      <!-- 10 -->
      <g style="fill:#262626;" transform="translate(839.064787 332.373594)scale(0.11 -0.11)">
       <use xlink:href="#ArialMT-49"/>
       <use x="55.615234" xlink:href="#ArialMT-48"/>
      </g>
     </g>
    </g>
    <g id="xtick_13">
     <g id="line2d_24">
      <g>
       <use style="fill:#262626;stroke:#262626;stroke-width:1.25;" x="908.590909" xlink:href="#m78ff9de8f1" y="315"/>
      </g>
     </g>
     <g id="text_23">
      <!-- 20 -->
      <g style="fill:#262626;" transform="translate(902.473878 332.373594)scale(0.11 -0.11)">
       <use xlink:href="#ArialMT-50"/>
       <use x="55.615234" xlink:href="#ArialMT-48"/>
      </g>
     </g>
    </g>
    <g id="xtick_14">
     <g id="line2d_25">
      <g>
       <use style="fill:#262626;stroke:#262626;stroke-width:1.25;" x="972" xlink:href="#m78ff9de8f1" y="315"/>
      </g>
     </g>
     <g id="text_24">
      <!-- 30 -->
      <g style="fill:#262626;" transform="translate(965.882969 332.373594)scale(0.11 -0.11)">
       <use xlink:href="#ArialMT-51"/>
       <use x="55.615234" xlink:href="#ArialMT-48"/>
      </g>
     </g>
    </g>
    <g id="text_25">
     <!-- Signed contrast -->
     <g style="fill:#262626;" transform="translate(740.08304 347.295469)scale(0.12 -0.12)">
      <use xlink:href="#ArialMT-83"/>
      <use x="66.699219" xlink:href="#ArialMT-105"/>
      <use x="88.916016" xlink:href="#ArialMT-103"/>
      <use x="144.53125" xlink:href="#ArialMT-110"/>
      <use x="200.146484" xlink:href="#ArialMT-101"/>
      <use x="255.761719" xlink:href="#ArialMT-100"/>
      <use x="311.376953" xlink:href="#ArialMT-32"/>
      <use x="339.160156" xlink:href="#ArialMT-99"/>
      <use x="389.160156" xlink:href="#ArialMT-111"/>
      <use x="444.775391" xlink:href="#ArialMT-110"/>
      <use x="500.390625" xlink:href="#ArialMT-116"/>
      <use x="528.173828" xlink:href="#ArialMT-114"/>
      <use x="561.474609" xlink:href="#ArialMT-97"/>
      <use x="617.089844" xlink:href="#ArialMT-115"/>
      <use x="667.089844" xlink:href="#ArialMT-116"/>
     </g>
    </g>
   </g>
   <g id="matplotlib.axis_4">
    <g id="ytick_6">
     <g id="line2d_26">
      <g>
       <use style="fill:#262626;stroke:#262626;stroke-width:1.25;" x="591.545455" xlink:href="#m0fa1662a92" y="307.432941"/>
      </g>
     </g>
     <g id="text_26">
      <!-- 0.0 -->
      <g style="fill:#262626;" transform="translate(566.755455 311.369738)scale(0.11 -0.11)">
       <use xlink:href="#ArialMT-48"/>
       <use x="55.615234" xlink:href="#ArialMT-46"/>
       <use x="83.398438" xlink:href="#ArialMT-48"/>
      </g>
     </g>
    </g>
    <g id="ytick_7">
     <g id="line2d_27">
      <g>
       <use style="fill:#262626;stroke:#262626;stroke-width:1.25;" x="591.545455" xlink:href="#m0fa1662a92" y="255.989226"/>
      </g>
     </g>
     <g id="text_27">
      <!-- 0.2 -->
      <g style="fill:#262626;" transform="translate(566.755455 259.926023)scale(0.11 -0.11)">
       <use xlink:href="#ArialMT-48"/>
       <use x="55.615234" xlink:href="#ArialMT-46"/>
       <use x="83.398438" xlink:href="#ArialMT-50"/>
      </g>
     </g>
    </g>
    <g id="ytick_8">
     <g id="line2d_28">
      <g>
       <use style="fill:#262626;stroke:#262626;stroke-width:1.25;" x="591.545455" xlink:href="#m0fa1662a92" y="204.545511"/>
      </g>
     </g>
     <g id="text_28">
      <!-- 0.4 -->
      <g style="fill:#262626;" transform="translate(566.755455 208.482308)scale(0.11 -0.11)">
       <use xlink:href="#ArialMT-48"/>
       <use x="55.615234" xlink:href="#ArialMT-46"/>
       <use x="83.398438" xlink:href="#ArialMT-52"/>
      </g>
     </g>
    </g>
    <g id="ytick_9">
     <g id="line2d_29">
      <g>
       <use style="fill:#262626;stroke:#262626;stroke-width:1.25;" x="591.545455" xlink:href="#m0fa1662a92" y="153.101797"/>
      </g>
     </g>
     <g id="text_29">
      <!-- 0.6 -->
      <g style="fill:#262626;" transform="translate(566.755455 157.038594)scale(0.11 -0.11)">
       <use xlink:href="#ArialMT-48"/>
       <use x="55.615234" xlink:href="#ArialMT-46"/>
       <use x="83.398438" xlink:href="#ArialMT-54"/>
      </g>
     </g>
    </g>
    <g id="ytick_10">
     <g id="line2d_30">
      <g>
       <use style="fill:#262626;stroke:#262626;stroke-width:1.25;" x="591.545455" xlink:href="#m0fa1662a92" y="101.658082"/>
      </g>
     </g>
     <g id="text_30">
      <!-- 0.8 -->
      <g style="fill:#262626;" transform="translate(566.755455 105.594879)scale(0.11 -0.11)">
       <use xlink:href="#ArialMT-48"/>
       <use x="55.615234" xlink:href="#ArialMT-46"/>
       <use x="83.398438" xlink:href="#ArialMT-56"/>
      </g>
     </g>
    </g>
    <g id="ytick_11">
     <g id="line2d_31">
      <g>
       <use style="fill:#262626;stroke:#262626;stroke-width:1.25;" x="591.545455" xlink:href="#m0fa1662a92" y="50.214367"/>
      </g>
     </g>
     <g id="text_31">
      <!-- 1.0 -->
      <g style="fill:#262626;" transform="translate(566.755455 54.151164)scale(0.11 -0.11)">
       <use xlink:href="#ArialMT-49"/>
       <use x="55.615234" xlink:href="#ArialMT-46"/>
       <use x="83.398438" xlink:href="#ArialMT-48"/>
      </g>
     </g>
    </g>
    <g id="text_32">
     <!-- Fraction of CW choices -->
     <g style="fill:#262626;" transform="translate(560.370455 241.115625)rotate(-90)scale(0.12 -0.12)">
      <use xlink:href="#ArialMT-70"/>
      <use x="61.083984" xlink:href="#ArialMT-114"/>
      <use x="94.384766" xlink:href="#ArialMT-97"/>
      <use x="150" xlink:href="#ArialMT-99"/>
      <use x="200" xlink:href="#ArialMT-116"/>
      <use x="227.783203" xlink:href="#ArialMT-105"/>
      <use x="250" xlink:href="#ArialMT-111"/>
      <use x="305.615234" xlink:href="#ArialMT-110"/>
      <use x="361.230469" xlink:href="#ArialMT-32"/>
      <use x="389.013672" xlink:href="#ArialMT-111"/>
      <use x="444.628906" xlink:href="#ArialMT-102"/>
      <use x="472.412109" xlink:href="#ArialMT-32"/>
      <use x="500.195312" xlink:href="#ArialMT-67"/>
      <use x="572.412109" xlink:href="#ArialMT-87"/>
      <use x="666.796875" xlink:href="#ArialMT-32"/>
      <use x="694.580078" xlink:href="#ArialMT-99"/>
      <use x="744.580078" xlink:href="#ArialMT-104"/>
      <use x="800.195312" xlink:href="#ArialMT-111"/>
      <use x="855.810547" xlink:href="#ArialMT-105"/>
      <use x="878.027344" xlink:href="#ArialMT-99"/>
      <use x="928.027344" xlink:href="#ArialMT-101"/>
      <use x="983.642578" xlink:href="#ArialMT-115"/>
     </g>
    </g>
   </g>
   <g id="LineCollection_3">
    <path clip-path="url(#p5f371aa2dc)" d="M 623.25 302.470524 
L 623.25 299.096081 
" style="fill:none;stroke:#0000ff;stroke-linecap:round;stroke-width:1.5;"/>
    <path clip-path="url(#p5f371aa2dc)" d="M 702.511364 290.362628 
L 702.511364 284.931165 
" style="fill:none;stroke:#0000ff;stroke-linecap:round;stroke-width:1.5;"/>
    <path clip-path="url(#p5f371aa2dc)" d="M 742.142045 271.237513 
L 742.142045 264.306473 
" style="fill:none;stroke:#0000ff;stroke-linecap:round;stroke-width:1.5;"/>
    <path clip-path="url(#p5f371aa2dc)" d="M 781.772727 205.072516 
L 781.772727 198.180923 
" style="fill:none;stroke:#0000ff;stroke-linecap:round;stroke-width:1.5;"/>
    <path clip-path="url(#p5f371aa2dc)" d="M 821.403409 93.671387 
L 821.403409 86.232798 
" style="fill:none;stroke:#0000ff;stroke-linecap:round;stroke-width:1.5;"/>
    <path clip-path="url(#p5f371aa2dc)" d="M 861.034091 70.1776 
L 861.034091 64.802884 
" style="fill:none;stroke:#0000ff;stroke-linecap:round;stroke-width:1.5;"/>
    <path clip-path="url(#p5f371aa2dc)" d="M 940.295455 65.606975 
L 940.295455 61.15122 
" style="fill:none;stroke:#0000ff;stroke-linecap:round;stroke-width:1.5;"/>
   </g>
   <g id="LineCollection_4">
    <path clip-path="url(#p5f371aa2dc)" d="M 623.25 302.645455 
L 623.25 299.163646 
" style="fill:none;stroke:#008000;stroke-linecap:round;stroke-width:1.5;"/>
    <path clip-path="url(#p5f371aa2dc)" d="M 702.511364 295.435806 
L 702.511364 290.636952 
" style="fill:none;stroke:#008000;stroke-linecap:round;stroke-width:1.5;"/>
    <path clip-path="url(#p5f371aa2dc)" d="M 742.142045 283.526223 
L 742.142045 277.328185 
" style="fill:none;stroke:#008000;stroke-linecap:round;stroke-width:1.5;"/>
    <path clip-path="url(#p5f371aa2dc)" d="M 781.772727 212.999548 
L 781.772727 205.579782 
" style="fill:none;stroke:#008000;stroke-linecap:round;stroke-width:1.5;"/>
    <path clip-path="url(#p5f371aa2dc)" d="M 821.403409 97.955694 
L 821.403409 89.674035 
" style="fill:none;stroke:#008000;stroke-linecap:round;stroke-width:1.5;"/>
    <path clip-path="url(#p5f371aa2dc)" d="M 861.034091 78.89379 
L 861.034091 72.620167 
" style="fill:none;stroke:#008000;stroke-linecap:round;stroke-width:1.5;"/>
    <path clip-path="url(#p5f371aa2dc)" d="M 940.295455 59.114664 
L 940.295455 55.554545 
" style="fill:none;stroke:#008000;stroke-linecap:round;stroke-width:1.5;"/>
   </g>
   <g id="line2d_32">
    <path clip-path="url(#p5f371aa2dc)" d="M 623.25 294.387263 
L 629.590909 294.387074 
L 635.931818 294.386618 
L 642.272727 294.385554 
L 648.613636 294.383158 
L 654.954545 294.377946 
L 661.295455 294.367011 
L 667.636364 294.344865 
L 673.977273 294.301577 
L 680.318182 294.219917 
L 686.659091 294.071243 
L 693 293.809998 
L 699.340909 293.366957 
L 705.681818 292.641814 
L 712.022727 291.496329 
L 718.363636 289.749948 
L 724.704545 287.180302 
L 731.045455 283.531144 
L 737.386364 278.529685 
L 743.727273 271.913836 
L 750.068182 263.467672 
L 756.409091 253.060847 
L 762.75 240.685365 
L 769.090909 226.482011 
L 775.431818 210.749255 
L 781.772727 193.930116 
L 788.113636 176.576588 
L 794.454545 159.296065 
L 800.795455 142.688305 
L 807.136364 127.283709 
L 813.477273 113.493381 
L 819.818182 101.578657 
L 826.159091 91.643417 
L 832.5 83.647695 
L 838.840909 77.43726 
L 845.181818 72.781707 
L 851.522727 69.413449 
L 857.863636 67.06152 
L 864.204545 65.476525 
L 870.545455 64.445626 
L 876.886364 63.798499 
L 883.227273 63.406444 
L 889.568182 63.177205 
L 895.909091 63.047841 
L 902.25 62.977383 
L 908.590909 62.940348 
L 914.931818 62.921559 
L 921.272727 62.912359 
L 927.613636 62.908012 
L 933.954545 62.906029 
" style="fill:none;stroke:#0000ff;stroke-linecap:round;stroke-width:2;"/>
   </g>
   <g id="line2d_33">
    <path clip-path="url(#p5f371aa2dc)" d="M 623.25 300.816386 
L 702.511364 287.646897 
L 742.142045 267.771993 
L 781.772727 201.424025 
L 821.403409 90.147845 
L 861.034091 67.490242 
L 940.295455 63.176563 
" style="fill:none;"/>
    <g clip-path="url(#p5f371aa2dc)">
     <use style="fill:#0000ff;stroke:#ffffff;stroke-width:0.5;" x="623.25" xlink:href="#mca34d1d741" y="300.816386"/>
     <use style="fill:#0000ff;stroke:#ffffff;stroke-width:0.5;" x="702.511364" xlink:href="#mca34d1d741" y="287.646897"/>
     <use style="fill:#0000ff;stroke:#ffffff;stroke-width:0.5;" x="742.142045" xlink:href="#mca34d1d741" y="267.771993"/>
     <use style="fill:#0000ff;stroke:#ffffff;stroke-width:0.5;" x="781.772727" xlink:href="#mca34d1d741" y="201.424025"/>
     <use style="fill:#0000ff;stroke:#ffffff;stroke-width:0.5;" x="821.403409" xlink:href="#mca34d1d741" y="90.147845"/>
     <use style="fill:#0000ff;stroke:#ffffff;stroke-width:0.5;" x="861.034091" xlink:href="#mca34d1d741" y="67.490242"/>
     <use style="fill:#0000ff;stroke:#ffffff;stroke-width:0.5;" x="940.295455" xlink:href="#mca34d1d741" y="63.176563"/>
    </g>
   </g>
   <g id="line2d_34">
    <path clip-path="url(#p5f371aa2dc)" d="M 623.25 297.970984 
L 629.590909 297.970856 
L 635.931818 297.970544 
L 642.272727 297.969808 
L 648.613636 297.96813 
L 654.954545 297.964438 
L 661.295455 297.956593 
L 667.636364 297.940502 
L 673.977273 297.908632 
L 680.318182 297.84769 
L 686.659091 297.735172 
L 693 297.534597 
L 699.340909 297.189381 
L 705.681818 296.615712 
L 712.022727 295.695283 
L 718.363636 294.269424 
L 724.704545 292.136771 
L 731.045455 289.056977 
L 737.386364 284.76279 
L 743.727273 278.981859 
L 750.068182 271.467834 
L 756.409091 262.037973 
L 762.75 250.61193 
L 769.090909 237.244609 
L 775.431818 222.145516 
L 781.772727 205.678485 
L 788.113636 188.338936 
L 794.454545 170.71032 
L 800.795455 153.405913 
L 807.136364 137.005561 
L 813.477273 121.998085 
L 819.818182 108.738799 
L 826.159091 97.428072 
L 832.5 88.1123 
L 838.840909 80.704229 
L 845.181818 75.016364 
L 851.522727 70.799872 
L 857.863636 67.78193 
L 864.204545 65.696342 
L 870.545455 64.304777 
L 876.886364 63.408306 
L 883.227273 62.850701 
L 889.568182 62.515832 
L 895.909091 62.321663 
L 902.25 62.21296 
L 908.590909 62.154203 
L 914.931818 62.123538 
L 921.272727 62.108087 
L 927.613636 62.100569 
L 933.954545 62.097038 
" style="fill:none;stroke:#008000;stroke-linecap:round;stroke-width:2;"/>
   </g>
   <g id="line2d_35">
    <path clip-path="url(#p5f371aa2dc)" d="M 623.25 300.90455 
L 702.511364 293.036379 
L 742.142045 280.427204 
L 781.772727 209.177244 
L 821.403409 94.058442 
L 861.034091 75.756978 
L 940.295455 57.334605 
" style="fill:none;"/>
    <g clip-path="url(#p5f371aa2dc)">
     <use style="fill:#008000;stroke:#ffffff;stroke-width:0.5;" x="623.25" xlink:href="#m6a6b552137" y="300.90455"/>
     <use style="fill:#008000;stroke:#ffffff;stroke-width:0.5;" x="702.511364" xlink:href="#m6a6b552137" y="293.036379"/>
     <use style="fill:#008000;stroke:#ffffff;stroke-width:0.5;" x="742.142045" xlink:href="#m6a6b552137" y="280.427204"/>
     <use style="fill:#008000;stroke:#ffffff;stroke-width:0.5;" x="781.772727" xlink:href="#m6a6b552137" y="209.177244"/>
     <use style="fill:#008000;stroke:#ffffff;stroke-width:0.5;" x="821.403409" xlink:href="#m6a6b552137" y="94.058442"/>
     <use style="fill:#008000;stroke:#ffffff;stroke-width:0.5;" x="861.034091" xlink:href="#m6a6b552137" y="75.756978"/>
     <use style="fill:#008000;stroke:#ffffff;stroke-width:0.5;" x="940.295455" xlink:href="#m6a6b552137" y="57.334605"/>
    </g>
   </g>
   <g id="line2d_36"/>
   <g id="line2d_37"/>
   <g id="patch_11">
    <path d="M 591.545455 315 
L 591.545455 43.2 
" style="fill:none;stroke:#262626;stroke-linecap:square;stroke-linejoin:miter;stroke-width:1.25;"/>
   </g>
   <g id="patch_12">
    <path d="M 972 315 
L 972 43.2 
" style="fill:none;stroke:#262626;stroke-linecap:square;stroke-linejoin:miter;stroke-width:1.25;"/>
   </g>
   <g id="patch_13">
    <path d="M 591.545455 315 
L 972 315 
" style="fill:none;stroke:#262626;stroke-linecap:square;stroke-linejoin:miter;stroke-width:1.25;"/>
   </g>
   <g id="patch_14">
    <path d="M 591.545455 43.2 
L 972 43.2 
" style="fill:none;stroke:#262626;stroke-linecap:square;stroke-linejoin:miter;stroke-width:1.25;"/>
   </g>
   <g id="text_33">
    <!-- nphr B -->
    <defs>
     <path d="M 6.59375 -19.875 
L 6.59375 51.859375 
L 14.59375 51.859375 
L 14.59375 45.125 
Q 17.4375 49.078125 21 51.046875 
Q 24.5625 53.03125 29.640625 53.03125 
Q 36.28125 53.03125 41.359375 49.609375 
Q 46.4375 46.1875 49.015625 39.953125 
Q 51.609375 33.734375 51.609375 26.3125 
Q 51.609375 18.359375 48.75 11.984375 
Q 45.90625 5.609375 40.453125 2.21875 
Q 35.015625 -1.171875 29 -1.171875 
Q 24.609375 -1.171875 21.109375 0.6875 
Q 17.625 2.546875 15.375 5.375 
L 15.375 -19.875 
z
M 14.546875 25.640625 
Q 14.546875 15.625 18.59375 10.84375 
Q 22.65625 6.0625 28.421875 6.0625 
Q 34.28125 6.0625 38.453125 11.015625 
Q 42.625 15.96875 42.625 26.375 
Q 42.625 36.28125 38.546875 41.203125 
Q 34.46875 46.140625 28.8125 46.140625 
Q 23.1875 46.140625 18.859375 40.890625 
Q 14.546875 35.640625 14.546875 25.640625 
z
" id="ArialMT-112"/>
    </defs>
    <g style="fill:#262626;" transform="translate(764.096165 37.2)scale(0.12 -0.12)">
     <use xlink:href="#ArialMT-110"/>
     <use x="55.615234" xlink:href="#ArialMT-112"/>
     <use x="111.230469" xlink:href="#ArialMT-104"/>
     <use x="166.845703" xlink:href="#ArialMT-114"/>
     <use x="200.146484" xlink:href="#ArialMT-32"/>
     <use x="227.929688" xlink:href="#ArialMT-66"/>
    </g>
   </g>
   <g id="legend_2">
    <g id="patch_15">
     <path d="M 827.307031 309.5 
L 964.3 309.5 
Q 966.5 309.5 966.5 307.3 
L 966.5 277.017344 
Q 966.5 274.817344 964.3 274.817344 
L 827.307031 274.817344 
Q 825.107031 274.817344 825.107031 277.017344 
L 825.107031 307.3 
Q 825.107031 309.5 827.307031 309.5 
z
" style="fill:#ffffff;opacity:0.8;stroke:#cccccc;stroke-linejoin:miter;"/>
    </g>
    <g id="patch_16">
     <path d="M 829.507031 287.225 
L 851.507031 287.225 
L 851.507031 279.525 
L 829.507031 279.525 
z
" style="fill:#008000;stroke:#008000;stroke-linejoin:miter;"/>
    </g>
    <g id="text_34">
     <!-- Stim right = Laser on -->
     <g style="fill:#262626;" transform="translate(860.307031 287.225)scale(0.11 -0.11)">
      <use xlink:href="#ArialMT-83"/>
      <use x="66.699219" xlink:href="#ArialMT-116"/>
      <use x="94.482422" xlink:href="#ArialMT-105"/>
      <use x="116.699219" xlink:href="#ArialMT-109"/>
      <use x="200" xlink:href="#ArialMT-32"/>
      <use x="227.783203" xlink:href="#ArialMT-114"/>
      <use x="261.083984" xlink:href="#ArialMT-105"/>
      <use x="283.300781" xlink:href="#ArialMT-103"/>
      <use x="338.916016" xlink:href="#ArialMT-104"/>
      <use x="394.53125" xlink:href="#ArialMT-116"/>
      <use x="422.314453" xlink:href="#ArialMT-32"/>
      <use x="450.097656" xlink:href="#ArialMT-61"/>
      <use x="508.496094" xlink:href="#ArialMT-32"/>
      <use x="536.279297" xlink:href="#ArialMT-76"/>
      <use x="591.894531" xlink:href="#ArialMT-97"/>
      <use x="647.509766" xlink:href="#ArialMT-115"/>
      <use x="697.509766" xlink:href="#ArialMT-101"/>
      <use x="753.125" xlink:href="#ArialMT-114"/>
      <use x="786.425781" xlink:href="#ArialMT-32"/>
      <use x="814.208984" xlink:href="#ArialMT-111"/>
      <use x="869.824219" xlink:href="#ArialMT-110"/>
     </g>
    </g>
    <g id="patch_17">
     <path d="M 829.507031 302.91375 
L 851.507031 302.91375 
L 851.507031 295.21375 
L 829.507031 295.21375 
z
" style="fill:#0000ff;stroke:#0000ff;stroke-linejoin:miter;"/>
    </g>
    <g id="text_35">
     <!-- Stim left = Laser on -->
     <g style="fill:#262626;" transform="translate(860.307031 302.91375)scale(0.11 -0.11)">
      <use xlink:href="#ArialMT-83"/>
      <use x="66.699219" xlink:href="#ArialMT-116"/>
      <use x="94.482422" xlink:href="#ArialMT-105"/>
      <use x="116.699219" xlink:href="#ArialMT-109"/>
      <use x="200" xlink:href="#ArialMT-32"/>
      <use x="227.783203" xlink:href="#ArialMT-108"/>
      <use x="250" xlink:href="#ArialMT-101"/>
      <use x="305.615234" xlink:href="#ArialMT-102"/>
      <use x="333.398438" xlink:href="#ArialMT-116"/>
      <use x="361.181641" xlink:href="#ArialMT-32"/>
      <use x="388.964844" xlink:href="#ArialMT-61"/>
      <use x="447.363281" xlink:href="#ArialMT-32"/>
      <use x="475.146484" xlink:href="#ArialMT-76"/>
      <use x="530.761719" xlink:href="#ArialMT-97"/>
      <use x="586.376953" xlink:href="#ArialMT-115"/>
      <use x="636.376953" xlink:href="#ArialMT-101"/>
      <use x="691.992188" xlink:href="#ArialMT-114"/>
      <use x="725.292969" xlink:href="#ArialMT-32"/>
      <use x="753.076172" xlink:href="#ArialMT-111"/>
      <use x="808.691406" xlink:href="#ArialMT-110"/>
     </g>
    </g>
   </g>
  </g>
 </g>
 <defs>
  <clipPath id="pd478c5de85">
   <rect height="271.8" width="380.454545" x="135" y="43.2"/>
  </clipPath>
  <clipPath id="p5f371aa2dc">
   <rect height="271.8" width="380.454545" x="591.545455" y="43.2"/>
  </clipPath>
 </defs>
</svg>
